<svg width="140" height="46" viewBox="0 0 140 46" fill="none" xmlns="http://www.w3.org/2000/svg">
<path d="M26.928 38.268C27.3973 38.268 27.8027 38.46 28.144 38.844C28.4853 39.228 28.656 39.7187 28.656 40.316C28.656 41.3827 27.9093 42.364 26.416 43.26C24.88 44.156 23.2587 44.8387 21.552 45.308C19.8453 45.7347 18.1813 45.948 16.56 45.948C11.7387 45.948 7.92 44.5187 5.104 41.66C2.33067 38.8013 0.944 34.8547 0.944 29.82C0.944 26.62 1.56267 23.804 2.8 21.372C4.03733 18.8973 5.76533 16.9773 7.984 15.612C10.2453 14.2467 12.8053 13.564 15.664 13.564C19.7173 13.564 22.9387 14.8867 25.328 17.532C27.7173 20.1773 28.912 23.7613 28.912 28.284C28.912 29.1373 28.7413 29.756 28.4 30.14C28.0587 30.524 27.504 30.716 26.736 30.716H6.128C6.512 38.0547 9.98933 41.724 16.56 41.724C18.224 41.724 19.6533 41.5107 20.848 41.084C22.0427 40.6147 23.3227 39.996 24.688 39.228C25.7973 38.588 26.544 38.268 26.928 38.268ZM15.728 17.596C12.9973 17.596 10.8 18.4493 9.136 20.156C7.51467 21.8627 6.55467 24.2733 6.256 27.388H24.368C24.2827 24.2307 23.4933 21.82 22 20.156C20.5067 18.4493 18.416 17.596 15.728 17.596ZM60.23 13.692C61.0407 13.692 61.6593 13.9267 62.086 14.396C62.5553 14.8653 62.79 15.484 62.79 16.252V43.324C62.79 44.0493 62.5553 44.6467 62.086 45.116C61.6593 45.5853 61.0407 45.82 60.23 45.82C59.462 45.82 58.8433 45.6067 58.374 45.18C57.9473 44.7107 57.734 44.1133 57.734 43.388V40.188C56.7527 42.0653 55.366 43.4947 53.574 44.476C51.8247 45.4573 49.8407 45.948 47.622 45.948C43.91 45.948 41.1153 44.924 39.238 42.876C37.3607 40.7853 36.422 37.7133 36.422 33.66V16.252C36.422 15.484 36.6567 14.8653 37.126 14.396C37.5953 13.9267 38.2353 13.692 39.046 13.692C39.8567 13.692 40.4753 13.9267 40.902 14.396C41.3713 14.8653 41.606 15.484 41.606 16.252V33.532C41.606 36.3053 42.1607 38.3533 43.27 39.676C44.3793 40.956 46.1287 41.596 48.518 41.596C51.2487 41.596 53.446 40.7213 55.11 38.972C56.774 37.18 57.606 34.8333 57.606 31.932V16.252C57.606 15.484 57.8407 14.8653 58.31 14.396C58.7793 13.9267 59.4193 13.692 60.23 13.692ZM75.049 45.82C74.281 45.82 73.641 45.6067 73.129 45.18C72.6597 44.7107 72.425 44.0707 72.425 43.26V2.62C72.425 1.80933 72.6597 1.19066 73.129 0.763996C73.641 0.294664 74.281 0.0599976 75.049 0.0599976C75.7743 0.0599976 76.3717 0.294664 76.841 0.763996C77.353 1.19066 77.609 1.80933 77.609 2.62V43.26C77.609 44.0707 77.353 44.7107 76.841 45.18C76.3717 45.6067 75.7743 45.82 75.049 45.82ZM111.428 38.268C111.897 38.268 112.303 38.46 112.644 38.844C112.985 39.228 113.156 39.7187 113.156 40.316C113.156 41.3827 112.409 42.364 110.916 43.26C109.38 44.156 107.759 44.8387 106.052 45.308C104.345 45.7347 102.681 45.948 101.06 45.948C96.2387 45.948 92.42 44.5187 89.604 41.66C86.8307 38.8013 85.444 34.8547 85.444 29.82C85.444 26.62 86.0627 23.804 87.3 21.372C88.5373 18.8973 90.2653 16.9773 92.484 15.612C94.7453 14.2467 97.3053 13.564 100.164 13.564C104.217 13.564 107.439 14.8867 109.828 17.532C112.217 20.1773 113.412 23.7613 113.412 28.284C113.412 29.1373 113.241 29.756 112.9 30.14C112.559 30.524 112.004 30.716 111.236 30.716H90.628C91.012 38.0547 94.4893 41.724 101.06 41.724C102.724 41.724 104.153 41.5107 105.348 41.084C106.543 40.6147 107.823 39.996 109.188 39.228C110.297 38.588 111.044 38.268 111.428 38.268ZM100.228 17.596C97.4973 17.596 95.3 18.4493 93.636 20.156C92.0147 21.8627 91.0547 24.2733 90.756 27.388H108.868C108.783 24.2307 107.993 21.82 106.5 20.156C105.007 18.4493 102.916 17.596 100.228 17.596ZM136.474 13.692C138.266 13.564 139.162 14.2893 139.162 15.868C139.162 16.5507 138.97 17.1053 138.586 17.532C138.202 17.916 137.541 18.1507 136.602 18.236L134.682 18.428C131.823 18.684 129.69 19.708 128.282 21.5C126.917 23.2493 126.234 25.3187 126.234 27.708V43.26C126.234 44.1133 125.999 44.7533 125.53 45.18C125.061 45.6067 124.442 45.82 123.674 45.82C122.906 45.82 122.266 45.6067 121.754 45.18C121.285 44.7107 121.05 44.0707 121.05 43.26V16.252C121.05 15.4413 121.306 14.8227 121.818 14.396C122.33 13.9267 122.949 13.692 123.674 13.692C124.357 13.692 124.933 13.9267 125.402 14.396C125.871 14.8227 126.106 15.42 126.106 16.188V19.772C127.002 17.8947 128.261 16.4653 129.882 15.484C131.546 14.5027 133.445 13.9267 135.578 13.756L136.474 13.692Z" fill="#7616C0"/>
</svg>
