<svg width="204" height="204" viewBox="0 0 204 204" fill="none" xmlns="http://www.w3.org/2000/svg">
<path d="M204 102C204 158.333 158.333 204 102 204C45.667 204 0 158.333 0 102C0 45.667 45.667 0 102 0C158.333 0 204 45.667 204 102ZM10.2421 102C10.2421 152.676 51.3235 193.758 102 193.758C152.676 193.758 193.758 152.676 193.758 102C193.758 51.3235 152.676 10.2421 102 10.2421C51.3235 10.2421 10.2421 51.3235 10.2421 102Z" fill="white"/>
<path d="M58.688 99.648C58.688 98.368 58.504 97.224 58.136 96.216C57.784 95.192 57.28 94.328 56.624 93.624C55.968 92.92 55.184 92.384 54.272 92.016C53.376 91.632 52.384 91.44 51.296 91.44C50.064 91.44 48.96 91.632 47.984 92.016C47.008 92.4 46.16 92.952 45.44 93.672C44.736 94.392 44.168 95.256 43.736 96.264C43.304 97.272 43.016 98.4 42.872 99.648H58.688ZM42.752 101.112V101.568C42.752 103.36 42.96 104.936 43.376 106.296C43.792 107.656 44.384 108.8 45.152 109.728C45.92 110.64 46.848 111.328 47.936 111.792C49.024 112.256 50.24 112.488 51.584 112.488C52.784 112.488 53.824 112.36 54.704 112.104C55.584 111.832 56.32 111.536 56.912 111.216C57.52 110.88 58 110.584 58.352 110.328C58.704 110.056 58.96 109.92 59.12 109.92C59.328 109.92 59.488 110 59.6 110.16L60.224 110.928C59.84 111.408 59.328 111.856 58.688 112.272C58.064 112.688 57.36 113.048 56.576 113.352C55.808 113.64 54.976 113.872 54.08 114.048C53.2 114.224 52.312 114.312 51.416 114.312C49.784 114.312 48.296 114.032 46.952 113.472C45.608 112.896 44.456 112.064 43.496 110.976C42.536 109.888 41.792 108.56 41.264 106.992C40.752 105.408 40.496 103.6 40.496 101.568C40.496 99.856 40.736 98.28 41.216 96.84C41.712 95.384 42.416 94.136 43.328 93.096C44.256 92.04 45.384 91.216 46.712 90.624C48.056 90.032 49.576 89.736 51.272 89.736C52.616 89.736 53.864 89.968 55.016 90.432C56.168 90.896 57.168 91.576 58.016 92.472C58.864 93.352 59.528 94.44 60.008 95.736C60.504 97.032 60.752 98.52 60.752 100.2C60.752 100.552 60.704 100.792 60.608 100.92C60.512 101.048 60.352 101.112 60.128 101.112H42.752ZM91.2553 90.12V114H89.9833C89.5833 114 89.3513 113.792 89.2873 113.376L89.0713 109.824C87.9673 111.2 86.6873 112.304 85.2313 113.136C83.7913 113.968 82.1833 114.384 80.4073 114.384C79.0793 114.384 77.9193 114.176 76.9273 113.76C75.9353 113.344 75.1113 112.744 74.4553 111.96C73.7993 111.176 73.3033 110.232 72.9673 109.128C72.6313 108.024 72.4633 106.776 72.4633 105.384V90.12H74.7673V105.384C74.7673 107.624 75.2793 109.384 76.3033 110.664C77.3273 111.928 78.8873 112.56 80.9833 112.56C82.5353 112.56 83.9833 112.168 85.3273 111.384C86.6873 110.584 87.8953 109.48 88.9513 108.072V90.12H91.2553ZM107.398 79.08V114H105.094V79.08H107.398ZM137.984 99.648C137.984 98.368 137.8 97.224 137.432 96.216C137.08 95.192 136.576 94.328 135.92 93.624C135.264 92.92 134.48 92.384 133.568 92.016C132.672 91.632 131.68 91.44 130.592 91.44C129.36 91.44 128.256 91.632 127.28 92.016C126.304 92.4 125.456 92.952 124.736 93.672C124.032 94.392 123.464 95.256 123.032 96.264C122.6 97.272 122.312 98.4 122.168 99.648H137.984ZM122.048 101.112V101.568C122.048 103.36 122.256 104.936 122.672 106.296C123.088 107.656 123.68 108.8 124.448 109.728C125.216 110.64 126.144 111.328 127.232 111.792C128.32 112.256 129.536 112.488 130.88 112.488C132.08 112.488 133.12 112.36 134 112.104C134.88 111.832 135.616 111.536 136.208 111.216C136.816 110.88 137.296 110.584 137.648 110.328C138 110.056 138.256 109.92 138.416 109.92C138.624 109.92 138.784 110 138.896 110.16L139.52 110.928C139.136 111.408 138.624 111.856 137.984 112.272C137.36 112.688 136.656 113.048 135.872 113.352C135.104 113.64 134.272 113.872 133.376 114.048C132.496 114.224 131.608 114.312 130.712 114.312C129.08 114.312 127.592 114.032 126.248 113.472C124.904 112.896 123.752 112.064 122.792 110.976C121.832 109.888 121.088 108.56 120.56 106.992C120.048 105.408 119.792 103.6 119.792 101.568C119.792 99.856 120.032 98.28 120.512 96.84C121.008 95.384 121.712 94.136 122.624 93.096C123.552 92.04 124.68 91.216 126.008 90.624C127.352 90.032 128.872 89.736 130.568 89.736C131.912 89.736 133.16 89.968 134.312 90.432C135.464 90.896 136.464 91.576 137.312 92.472C138.16 93.352 138.824 94.44 139.304 95.736C139.8 97.032 140.048 98.52 140.048 100.2C140.048 100.552 140 100.792 139.904 100.92C139.808 101.048 139.648 101.112 139.424 101.112H122.048ZM154.207 95.88C154.575 94.904 154.991 94.04 155.455 93.288C155.935 92.52 156.479 91.872 157.087 91.344C157.711 90.816 158.399 90.416 159.151 90.144C159.919 89.856 160.767 89.712 161.695 89.712C162.191 89.712 162.679 89.76 163.159 89.856C163.639 89.936 164.063 90.088 164.431 90.312L164.239 91.896C164.159 92.152 164.007 92.28 163.783 92.28C163.591 92.28 163.295 92.224 162.895 92.112C162.511 92 161.999 91.944 161.359 91.944C160.431 91.944 159.607 92.088 158.887 92.376C158.183 92.648 157.543 93.064 156.967 93.624C156.407 94.184 155.911 94.88 155.479 95.712C155.063 96.528 154.679 97.472 154.327 98.544V114H152.023V90.12H153.247C153.519 90.12 153.711 90.176 153.823 90.288C153.935 90.4 154.007 90.592 154.039 90.864L154.207 95.88Z" fill="white"/>
</svg>
